<svg width="10" height="10" viewBox="0 0 10 10" fill="none" xmlns="http://www.w3.org/2000/svg">
<path fill-rule="evenodd" clip-rule="evenodd" d="M1.62155 1.62207C1.17364 1.62207 0.810547 1.98517 0.810547 2.43307V7.29906C0.810547 7.74698 1.17364 8.11006 1.62155 8.11006H5.67654C6.12446 8.11006 6.48754 7.74698 6.48754 7.29906V6.15835C6.48754 6.12595 6.52363 6.10661 6.5506 6.12458L8.29011 7.28426C8.5596 7.46394 8.92054 7.27076 8.92054 6.94689V2.78525C8.92054 2.46138 8.5596 2.26821 8.29011 2.44786L6.5506 3.60754C6.52363 3.62551 6.48754 3.60619 6.48754 3.5738V2.43307C6.48754 1.98517 6.12446 1.62207 5.67654 1.62207H1.62155Z" fill="#707070"/>
</svg>
