<svg width="11" height="12" viewBox="0 0 11 12" fill="none" xmlns="http://www.w3.org/2000/svg">
<path fill-rule="evenodd" clip-rule="evenodd" d="M6.73919 0.367984C7.22981 -0.122661 8.02528 -0.122661 8.51596 0.367984L9.40434 1.25637C9.89502 1.74702 9.89502 2.54251 9.40434 3.03316L8.51596 3.92154L5.85081 1.25637L6.73919 0.367984ZM5.40656 1.70056L8.0717 4.36573L2.92537 9.51209C2.80756 9.62988 2.64778 9.69609 2.48118 9.69609H0.390305C0.216831 9.69609 0.0762115 9.55543 0.0762115 9.38199V7.29113C0.0762115 7.12448 0.142391 6.96473 0.260201 6.84694L5.40656 1.70056ZM0.47114 10.4728C0.210939 10.4728 0 10.6838 0 10.944C0 11.2042 0.210939 11.4151 0.47114 11.4151H9.57985C9.84005 11.4151 10.051 11.2042 10.051 10.944C10.051 10.6838 9.84005 10.4728 9.57985 10.4728H0.47114Z" fill="#00798A"/>
</svg>
